#!OML:ASF F:\VICON\USERDATA\INSTALL\rory3\rory3.ASF
:FULLY-SPECIFIED
:DEGREES
258
root 8.23881 15.7508 -4.22494 -178.776 45.3488 -173.39
lowerback 9.45103 -0.436724 2.4649
upperback -0.814684 -0.220937 0.913327
thorax -6.1706 -0.165635 -0.400241
lowerneck -10.1289 -8.90068 -13.0781
upperneck 19.4441 -11.8309 10.778
head 9.21532 -5.38613 4.46229
rclavicle 8.82728e-015 -1.15295e-014
rhumerus -37.6006 -3.48764 -83.333
rradius 23.9453
rwrist 16.914
rhand -14.9275 14.8047
rfingers 7.12502
rthumb 11.2347 -14.8745
lclavicle 8.82728e-015 -1.15295e-014
lhumerus -32.6852 7.55292 81.7934
lradius 23.7728
lwrist -3.06639
lhand -11.6445 14.914
lfingers 7.12502
lthumb 14.3996 44.3945
rfemur -10.3486 4.86664 30.2763
rtibia 29.8581
rfoot -11.0125 -18.6264
rtoes -1.02674
lfemur -13.83 4.84595 -15.8289
ltibia 67.6772
lfoot 6.04859 11.7307
ltoes -1.18429
259
root 8.3328 15.7386 -4.2891 -178.667 45.4336 -173.1
lowerback 9.52479 -0.36014 2.70754
upperback -0.682498 -0.0896296 0.894846
thorax -6.07044 -0.10623 -0.575803
lowerneck -10.1421 -8.95859 -13.0475
upperneck 19.4586 -11.9331 10.8556
head 9.23956 -5.42262 4.46957
rclavicle -2.12917e-014 3.18055e-015
rhumerus -37.1077 -3.21622 -83.5786
rradius 24.3582
rwrist 16.6059
rhand -15.0279 14.6084
rfingers 7.12502
rthumb 11.1379 -15.076
lclavicle -2.12917e-014 3.18055e-015
lhumerus -32.7041 7.46699 81.6005
lradius 23.5556
lwrist -2.49256
lhand -11.5739 14.8545
lfingers 7.12502
lthumb 14.4676 44.3301
rfemur -9.77947 4.77036 30.6522
rtibia 29.8578
rfoot -11.5111 -18.6427
rtoes -0.873006
lfemur -14.8935 4.86975 -15.7199
ltibia 67.6667
lfoot 3.76706 11.0756
ltoes -2.59078
260
root 8.42708 15.7294 -4.3527 -178.501 45.4925 -172.856
lowerback 9.5377 -0.308787 2.92248
upperback -0.580637 0.00122004 0.858106
thorax -5.96798 -0.0662298 -0.748879
lowerneck -10.2107 -9.02963 -13.0849
upperneck 19.5658 -12.0544 10.9984
head 9.318 -5.46257 4.50701
rclavicle 2.72925e-014 9.14409e-015
rhumerus -36.6275 -2.71305 -83.9497
rradius 24.8698
rwrist 16.0001
rhand -15.1183 14.5003
rfingers 7.12502
rthumb 11.0506 -15.1888
lclavicle 2.72925e-014 9.14409e-015
lhumerus -32.7736 7.33245 81.4119
lradius 23.3789
lwrist -1.74835
lhand -11.8753 14.544
lfingers 7.12502
lthumb 14.1771 44.0402
rfemur -9.37614 4.74396 30.995
rtibia 29.9693
rfoot -11.9605 -18.763
rtoes -0.424886
lfemur -16.0668 4.76619 -15.6679
ltibia 67.4434
lfoot 1.85938 10.559
ltoes -3.89151
261
root 8.5181 15.716 -4.41638 -178.238 45.5152 -172.527
lowerback 9.66909 -0.289172 3.17267
upperback -0.608639 0.0647518 0.877025
thorax -6.0702 -0.0436487 -0.878816
lowerneck -10.1341 -9.05319 -13.1494
upperneck 19.7061 -12.1038 11.0786
head 9.36918 -5.47982 4.54351
rclavicle -4.96154e-014 3.97569e-015
rhumerus -36.3157 -2.0426 -84.3198
rradius 25.3241
rwrist 15.3006
rhand -15.2634 14.5237
rfingers 7.12502
rthumb 10.9107 -15.1729
lclavicle -4.96154e-014 3.97569e-015
lhumerus -33.0436 7.98216 80.8215
lradius 23.2294
lwrist -2.48764
lhand -11.6335 14.828
lfingers 7.12502
lthumb 14.4102 44.3078
rfemur -8.99222 4.72007 31.3857
rtibia 30.1397
rfoot -12.5943 -18.7261
rtoes 0.342255
lfemur -17.2505 4.62519 -15.5732
ltibia 67.0427
lfoot 0.0951116 10.1966
ltoes -6.43763
262
root 8.60746 15.7004 -4.48142 -177.983 45.5124 -172.159
lowerback 9.82637 -0.266492 3.40666
upperback -0.631737 0.136399 0.942657
thorax -6.18135 -0.0156853 -0.952193
lowerneck -9.97763 -9.05436 -13.1542
upperneck 19.7423 -12.1176 11.0775
head 9.35478 -5.48916 4.54844
rclavicle 4.13503e-014 -6.36111e-015
rhumerus -36.0103 -1.54223 -84.5038
rradius 25.6887
rwrist 14.7109
rhand -15.4696 14.7368
rfingers 7.12502
rthumb 10.7118 -14.9701
lclavicle 4.13503e-014 -6.36111e-015
lhumerus -33.3608 8.39405 80.4275
lradius 23.1028
lwrist -2.9398
lhand -11.6502 14.9903
lfingers 7.12502
lthumb 14.3941 44.4712
rfemur -8.48467 4.62475 31.7755
rtibia 30.2906
rfoot -14.0182 -18.2263
rtoes 2.94216
lfemur -18.3315 4.47058 -15.4573
ltibia 66.5398
lfoot -1.42294 9.75821
ltoes -8.75849
263
root 8.69572 15.6869 -4.54947 -177.906 45.477 -172.078
lowerback 9.9119 -0.233076 3.50352
upperback -0.622275 0.195157 0.920615
thorax -6.21726 0.0093591 -1.03869
lowerneck -9.92259 -9.11401 -13.1368
upperneck 19.7722 -12.2166 11.1085
head 9.36946 -5.53083 4.54459
rclavicle -1.89933e-014 -1.35174e-014
rhumerus -35.7362 -1.08149 -84.6749
rradius 26.2525
rwrist 14.0869
rhand -15.611 14.8769
rfingers 7.12502
rthumb 10.5754 -14.837
lclavicle -1.89933e-014 -1.35174e-014
lhumerus -33.6196 8.16613 80.3887
lradius 22.9591
lwrist -2.10146
lhand -12.5077 14.5282
lfingers 7.12502
lthumb 13.5678 44.0661
rfemur -8.12975 4.37705 31.9161
rtibia 30.4303
rfoot -15.0207 -17.87
rtoes 4.36297
lfemur -19.3976 4.14689 -15.5748
ltibia 65.9165
lfoot -2.68209 9.32617
ltoes -9.6456
264
root 8.78479 15.6742 -4.61787 -177.722 45.4567 -171.816
lowerback 10.0419 -0.226573 3.69864
upperback -0.629715 0.23614 0.935888
thorax -6.29699 0.0225868 -1.1388
lowerneck -9.87392 -9.16794 -13.113
upperneck 19.8468 -12.3058 11.1198
head 9.39775 -5.56797 4.53458
rclavicle -4.42047e-014 9.93923e-015
rhumerus -35.5194 -0.452676 -84.958
rradius 26.9553
rwrist 13.4378
rhand -15.7653 14.5778
rfingers 7.12502
rthumb 10.4266 -15.1436
lclavicle -4.42047e-014 9.93923e-015
lhumerus -33.8749 8.31276 80.0859
lradius 22.7993
lwrist -2.07626
lhand -12.4151 14.6713
lfingers 7.12502
lthumb 13.6569 44.2033
rfemur -7.80816 4.27467 32.2305
rtibia 30.4863
rfoot -15.1863 -18.1037
rtoes 3.64734
lfemur -20.3971 3.74271 -15.4758
ltibia 65.1519
lfoot -4.09932 8.92249
ltoes -7.67899
265
root 8.87754 15.6648 -4.68274 -177.439 45.4889 -171.423
lowerback 10.1767 -0.220298 3.84691
upperback -0.644085 0.279221 1.03637
thorax -6.38708 0.0401739 -1.12358
lowerneck -9.75322 -9.17779 -13.143
upperneck 19.858 -12.3249 11.1218
head 9.38406 -5.58169 4.54212
rclavicle -5.5697e-014 -2.38542e-014
rhumerus -35.291 0.129033 -85.158
rradius 27.6772
rwrist 12.9002
rhand -15.7357 14.3103
rfingers 7.12502
rthumb 10.4551 -15.4097
lclavicle -5.5697e-014 -2.38542e-014
lhumerus -34.1315 9.02701 79.542
lradius 22.5227
lwrist -3.04258
lhand -11.8577 14.9886
lfingers 7.12502
lthumb 14.1941 44.4836
rfemur -7.32492 4.30252 32.6756
rtibia 30.4128
rfoot -15.3891 -18.2884
rtoes 2.91489
lfemur -21.3462 3.34052 -15.224
ltibia 64.2334
lfoot -5.47936 8.57119
ltoes -5.0793
266
root 8.96917 15.6587 -4.74839 -177.127 45.5248 -171.114
lowerback 10.2085 -0.187398 3.95112
upperback -0.660239 0.345481 1.1184
thorax -6.4195 0.0707799 -1.10638
lowerneck -9.726 -9.20608 -13.1884
upperneck 19.9165 -12.3669 11.1509
head 9.41047 -5.60064 4.55535
rclavicle 2.82026e-015 -1.70955e-014
rhumerus -35.0666 0.552533 -85.2548
rradius 28.4633
rwrist 12.3573
rhand -15.6297 14.2651
rfingers 7.12502
rthumb 10.5574 -15.4498
lclavicle 2.82026e-015 -1.70955e-014
lhumerus -34.4031 9.30555 79.2508
lradius 22.3736
lwrist -3.28192
lhand -12.1601 14.4334
lfingers 7.12502
lthumb 13.9028 43.9486
rfemur -6.84825 4.1623 33.0293
rtibia 30.2769
rfoot -15.4327 -18.4426
rtoes 1.35796
lfemur -22.366 2.91334 -15.0407
ltibia 63.1624
lfoot -6.68971 8.45772
ltoes -5.42757
267
root 9.05632 15.6494 -4.81788 -176.718 45.5923 -170.603
lowerback 10.2546 -0.144183 4.29916
upperback -0.621282 0.457022 1.20017
thorax -6.39826 0.117969 -1.23377
lowerneck -9.76126 -9.26636 -13.2539
upperneck 19.9646 -12.4555 11.2275
head 9.45626 -5.63685 4.57903
rclavicle 7.007e-014 7.55382e-015
rhumerus -34.7876 1.00312 -85.4046
rradius 29.2144
rwrist 11.6976
rhand -15.7466 14.1033
rfingers 7.12502
rthumb 10.4446 -15.6173
lclavicle 7.007e-014 7.55382e-015
lhumerus -34.5733 9.58317 78.9359
lradius 22.286
lwrist -3.73453
lhand -12.1539 14.0038
lfingers 7.12502
lthumb 13.9087 43.5187
rfemur -6.33843 4.00439 33.5014
rtibia 30.1271
rfoot -15.3951 -18.5921
rtoes -0.348805
lfemur -23.2786 2.56603 -14.6847
ltibia 61.9403
lfoot -7.77498 8.48336
ltoes -8.09177
268
root 9.14264 15.6428 -4.88896 -176.517 45.6623 -170.365
lowerback 10.3202 -0.120843 4.48285
upperback -0.586103 0.515566 1.20377
thorax -6.39422 0.141917 -1.34271
lowerneck -9.79397 -9.29461 -13.2591
upperneck 20.0066 -12.5117 11.3146
head 9.49135 -5.65219 4.60182
rclavicle -1.84893e-014 1.98785e-015
rhumerus -34.4861 1.47808 -85.5956
rradius 29.8525
rwrist 11.0988
rhand -16.1943 14.4942
rfingers 7.12502
rthumb 10.0127 -15.2477
lclavicle -1.84893e-014 1.98785e-015
lhumerus -34.7494 9.8886 78.5495
lradius 22.1808
lwrist -4.18588
lhand -11.7776 14.0305
lfingers 7.12502
lthumb 14.2713 43.5201
rfemur -5.82309 3.95158 33.7416
rtibia 29.9417
rfoot -15.7453 -18.5543
rtoes 0.0210318
lfemur -24.0151 2.16601 -14.5166
ltibia 60.4903
lfoot -8.50025 8.44375
ltoes -9.17596
269
root 9.22736 15.6436 -4.96344 -176.533 45.6584 -170.607
lowerback 10.2793 -0.109673 4.36198
upperback -0.617664 0.504864 1.11536
thorax -6.4047 0.13699 -1.3657
lowerneck -9.79312 -9.30938 -13.227
upperneck 20.0282 -12.5574 11.4022
head 9.50893 -5.66084 4.62154
rclavicle 7.27271e-014 -1.35174e-014
rhumerus -34.3188 2.03413 -85.7901
rradius 30.6611
rwrist 10.3941
rhand -16.7666 15.3457
rfingers 7.12502
rthumb 9.46059 -14.422
lclavicle 7.27271e-014 -1.35174e-014
lhumerus -35.0248 10.1234 78.2197
lradius 22.0905
lwrist -4.40256
lhand -11.7609 14.0786
lfingers 7.12502
lthumb 14.2874 43.567
rfemur -5.40312 3.69206 33.5675
rtibia 29.6651
rfoot -15.9835 -18.3874
rtoes -0.327792
lfemur -24.7619 1.59544 -14.7083
ltibia 58.8334
lfoot -8.94812 8.55029
ltoes -9.25824
